<?xml version="1.0" encoding="utf-8"?>
<svg xmlns="http://www.w3.org/2000/svg"
      viewBox="90 190 120 120"
      preserveAspectRatio="xMidYMid meet">
  <style>
    @media (prefers-color-scheme: light) {
      .logo-shape {
        fill: #111111;
      }
     }

    @media (prefers-color-scheme: dark) {
      .logo-shape {
        fill: #eeeeee;
      }
    }
  </style>
  <g>
    <path class="logo-shape" d="M174.753,285.613l-10.275,14.109c-0.648,0.869-1.67,1.397-2.76,1.397h-44.883
        c-2.573,0-4.209-2.743-2.999-5.01l5.572-10.497H174.753z"/>
    <polygon class="logo-shape" points="189.987,264.688 179.388,279.241 122.798,279.241 130.534,264.688"/>
    <path class="logo-shape" d="M174.753,214.387h-55.346l-5.572-10.497c-1.21-2.266,0.426-5.01,2.999-5.01h44.883
        c1.09,0,2.113,0.528,2.76,1.397L174.753,214.387z"/>
    <polygon class="logo-shape" points="189.987,235.312 130.534,235.312 122.798,220.759 179.388,220.759"/>
    <path class="logo-shape" d="M197.024,255.01l-2.385,3.289h-60.713l2.283-4.294c1.329-2.505,1.329-5.504,0-8.009l-2.283-4.294
        h60.713l2.385,3.289C199.205,247.972,199.205,252.028,197.024,255.01z"/>
  </g>
</svg>
